<svg width="18" height="18" viewBox="0 0 18 18" fill="none" xmlns="http://www.w3.org/2000/svg">
<path d="M10.5057 8.5058L16.5974 2.4283C16.8641 2.16153 17.014 1.79972 17.014 1.42246C17.014 1.0452 16.8641 0.683393 16.5974 0.41663C16.3306 0.149866 15.9688 0 15.5915 0C15.2143 0 14.8525 0.149866 14.5857 0.41663L8.50821 6.5083L2.43071 0.41663C2.16395 0.149866 1.80214 -2.81081e-09 1.42488 0C1.04762 2.81081e-09 0.685811 0.149866 0.419048 0.41663C0.152284 0.683393 0.00241769 1.0452 0.00241768 1.42246C0.00241768 1.79972 0.152284 2.16153 0.419048 2.4283L6.51071 8.5058L0.419048 14.5833C0.286266 14.715 0.180874 14.8717 0.108952 15.0443C0.0370295 15.2169 0 15.4021 0 15.5891C0 15.7761 0.0370295 15.9613 0.108952 16.1339C0.180874 16.3066 0.286266 16.4633 0.419048 16.595C0.550745 16.7277 0.70743 16.8331 0.880064 16.9051C1.0527 16.977 1.23786 17.014 1.42488 17.014C1.6119 17.014 1.79706 16.977 1.9697 16.9051C2.14233 16.8331 2.29902 16.7277 2.43071 16.595L8.50821 10.5033L14.5857 16.595C14.7174 16.7277 14.8741 16.8331 15.0467 16.9051C15.2194 16.977 15.4045 17.014 15.5915 17.014C15.7786 17.014 15.9637 16.977 16.1364 16.9051C16.309 16.8331 16.4657 16.7277 16.5974 16.595C16.7302 16.4633 16.8356 16.3066 16.9075 16.1339C16.9794 15.9613 17.0164 15.7761 17.0164 15.5891C17.0164 15.4021 16.9794 15.2169 16.9075 15.0443C16.8356 14.8717 16.7302 14.715 16.5974 14.5833L10.5057 8.5058Z" fill="black"/>
</svg>
