<svg width="25" height="19" viewBox="0 0 25 19" fill="none" xmlns="http://www.w3.org/2000/svg">
<path d="M20.2812 3.24512L18.4219 0.920899C18.0104 0.411046 17.4544 0.124994 16.875 0.125H8.01562C7.4375 0.125 6.87891 0.413086 6.46875 0.920899L4.60938 3.24512H0V15.7305H2.5C3.1875 15.7305 3.74219 15.0371 3.74609 14.1826H4.10156L7.40625 17.9131C8.61328 19.1387 10.2891 19.168 11.5312 18.0986C12.0195 18.626 12.5469 18.875 13.1367 18.875C13.8477 18.875 14.5156 18.5137 15.043 17.7031C15.9062 18.1279 16.9258 17.8301 17.543 16.8828L18.5664 15.3057C18.7852 14.9688 18.9219 14.583 18.9922 14.1826H21.2539C21.2578 15.0371 21.8164 15.7305 22.5 15.7305H25V3.24512H20.2812ZM1.875 14.168C1.53125 14.168 1.25 13.8164 1.25 13.3867C1.25 12.957 1.53125 12.6055 1.875 12.6055C2.21875 12.6055 2.5 12.957 2.5 13.3867C2.5 13.8213 2.21875 14.168 1.875 14.168ZM17.1094 13.8311L16.0898 15.4033C15.9805 15.5693 15.7852 15.5986 15.6484 15.4619L14.7148 14.5146L13.543 16.2969C13.3086 16.6533 12.957 16.5312 12.8398 16.4141L11.4023 14.876L10.793 15.8135C10.25 16.6484 9.26172 16.7754 8.63281 16.1357L4.83203 11.8389H3.75V5.58398H5.38672L7.79688 2.57617C7.875 2.53711 7.94141 2.50293 8.01953 2.46387H10.2344L8.72266 4.19727C7.57422 5.51074 7.50781 7.72754 8.55078 9.14355C9.12891 9.93457 10.9414 11.1553 12.5156 9.3584L12.8359 8.99219L17.0625 13.2793C17.1953 13.416 17.2148 13.665 17.1094 13.8311ZM21.25 11.8389H18.5469C18.457 11.7021 18.3555 11.5752 18.2461 11.4629L14.2344 7.39062L14.7227 6.83398C14.9766 6.54102 14.9961 6.04785 14.7617 5.73047L14.3359 5.15918C14.1016 4.8418 13.707 4.82227 13.4531 5.11035L11.2969 7.58105C10.9258 8.00586 10.293 8.04004 9.94531 7.58105C9.58203 7.09766 9.61328 6.35547 9.99219 5.92578L12.5547 2.99121C12.8438 2.65918 13.2188 2.47852 13.6094 2.47852L16.8789 2.46875C16.9609 2.46875 17.0391 2.50781 17.0938 2.58105L19.5039 5.58887H21.25V11.8389ZM23.125 14.168C22.7812 14.168 22.5 13.8164 22.5 13.3867C22.5 12.957 22.7812 12.6055 23.125 12.6055C23.4688 12.6055 23.75 12.957 23.75 13.3867C23.75 13.8213 23.4688 14.168 23.125 14.168Z" fill="white"/>
</svg>
