<svg width="20" height="16" viewBox="0 0 20 16" fill="none" xmlns="http://www.w3.org/2000/svg">
<path d="M3.98999 0.929016C4.13044 1.06964 4.20933 1.26027 4.20933 1.45902C4.20933 1.65777 4.13044 1.84839 3.98999 1.98902C3.20067 2.77832 2.57454 3.71536 2.14736 4.74665C1.72018 5.77793 1.50031 6.88326 1.50031 7.99952C1.50031 9.11577 1.72018 10.2211 2.14736 11.2524C2.57454 12.2837 3.20067 13.2207 3.98999 14.01C4.12655 14.1515 4.20206 14.341 4.20025 14.5377C4.19845 14.7343 4.11949 14.9224 3.98037 15.0614C3.84124 15.2004 3.6531 15.2792 3.45645 15.2808C3.2598 15.2824 3.07038 15.2067 2.92899 15.07C-0.976006 11.165 -0.976006 4.83402 2.92899 0.929016C3.06962 0.788566 3.26024 0.709676 3.45899 0.709676C3.65775 0.709676 3.84837 0.788566 3.98899 0.929016H3.98999ZM17.071 0.929016C20.976 4.83402 20.976 11.165 17.071 15.071C16.9288 15.2035 16.7408 15.2756 16.5465 15.2722C16.3522 15.2688 16.1668 15.1901 16.0294 15.0526C15.892 14.9152 15.8132 14.7298 15.8098 14.5355C15.8064 14.3412 15.8785 14.1532 16.011 14.011C16.8005 13.2217 17.4267 12.2846 17.854 11.2532C18.2813 10.2218 18.5012 9.11639 18.5012 8.00002C18.5012 6.88364 18.2813 5.7782 17.854 4.74682C17.4267 3.71544 16.8005 2.77834 16.011 1.98902C15.9373 1.92035 15.8782 1.83755 15.8372 1.74555C15.7962 1.65355 15.7742 1.55424 15.7724 1.45354C15.7706 1.35284 15.7892 1.25281 15.8269 1.15942C15.8646 1.06603 15.9207 0.981197 15.992 0.909978C16.0632 0.838759 16.148 0.782614 16.2414 0.744893C16.3348 0.707172 16.4348 0.688648 16.5355 0.690424C16.6362 0.692201 16.7355 0.714243 16.8275 0.755235C16.9195 0.796227 17.0023 0.855329 17.071 0.929016ZM6.81799 3.75702C6.95844 3.89764 7.03733 4.08827 7.03733 4.28702C7.03733 4.48577 6.95844 4.67639 6.81799 4.81702C6.39997 5.2349 6.06838 5.73104 5.84214 6.2771C5.6159 6.82316 5.49946 7.40844 5.49946 7.99952C5.49946 8.59059 5.6159 9.17587 5.84214 9.72193C6.06838 10.268 6.39997 10.7641 6.81799 11.182C6.95047 11.3242 7.0226 11.5122 7.01917 11.7065C7.01574 11.9008 6.93703 12.0862 6.79962 12.2236C6.6622 12.3611 6.47682 12.4398 6.28252 12.4432C6.08822 12.4466 5.90017 12.3745 5.75799 12.242C4.63286 11.1168 4.00078 9.59075 4.00078 7.99952C4.00078 6.40829 4.63286 4.88222 5.75799 3.75702C5.89862 3.61657 6.08924 3.53768 6.28799 3.53768C6.48674 3.53768 6.67737 3.61657 6.81799 3.75702ZM14.243 3.75702C15.3681 4.88222 16.0002 6.40829 16.0002 7.99952C16.0002 9.59075 15.3681 11.1168 14.243 12.242C14.1738 12.3137 14.0911 12.3709 13.9996 12.4102C13.9081 12.4496 13.8097 12.4703 13.7102 12.4712C13.6106 12.4721 13.5118 12.4532 13.4196 12.4155C13.3274 12.3778 13.2437 12.3222 13.1732 12.2518C13.1028 12.1814 13.047 12.0977 13.0093 12.0056C12.9715 11.9134 12.9525 11.8147 12.9533 11.7151C12.9541 11.6155 12.9748 11.5171 13.014 11.4255C13.0533 11.334 13.1104 11.2512 13.182 11.182C13.5999 10.7642 13.9313 10.2681 14.1575 9.7221C14.3836 9.17614 14.5 8.59097 14.5 8.00002C14.5 7.40906 14.3836 6.8239 14.1575 6.27793C13.9313 5.73196 13.5999 5.23588 13.182 4.81802C13.0495 4.67584 12.9774 4.48779 12.9808 4.29349C12.9842 4.09919 13.063 3.91381 13.2004 3.77639C13.3378 3.63898 13.5232 3.56027 13.7175 3.55684C13.9118 3.55341 14.0998 3.62554 14.242 3.75802L14.243 3.75702ZM9.99999 6.50002C10.3978 6.50002 10.7794 6.65805 11.0607 6.93936C11.342 7.22066 11.5 7.60219 11.5 8.00002C11.5 8.39784 11.342 8.77937 11.0607 9.06068C10.7794 9.34198 10.3978 9.50002 9.99999 9.50002C9.60217 9.50002 9.22064 9.34198 8.93933 9.06068C8.65803 8.77937 8.49999 8.39784 8.49999 8.00002C8.49999 7.60219 8.65803 7.22066 8.93933 6.93936C9.22064 6.65805 9.60217 6.50002 9.99999 6.50002Z" fill="#3FFF2E"/>
</svg>
