<svg width="24" height="25" viewBox="0 0 24 25" fill="none" xmlns="http://www.w3.org/2000/svg">
<path d="M11.9833 0.646118C13.828 0.646118 15.3349 1.9842 15.4195 3.66259C18.6337 4.91469 20.7983 7.8357 20.7983 11.1423V15.3092C22.2391 15.4109 23.3783 16.522 23.3783 17.8762V19.4615C23.3783 20.2279 22.7027 20.8469 21.8722 20.8469H2.09435C1.26183 20.8469 0.588257 20.2277 0.588257 19.4615V17.8762C0.588257 16.5236 1.72591 15.4109 3.16826 15.3092V11.1423C3.16826 7.83726 5.33328 4.9157 8.54698 3.66306C8.63137 1.98408 10.1397 0.646118 11.9833 0.646118ZM21.2283 18.8664V17.8762C21.2283 17.5496 20.9372 17.2821 20.5824 17.2821C19.5141 17.2821 18.6483 16.4844 18.6483 15.5003V11.1423C18.6483 8.45389 16.7557 6.10223 14.0202 5.29476L13.2733 5.07427V3.81152C13.2733 3.15831 12.6954 2.62659 11.9833 2.62659C11.272 2.62659 10.6933 3.15846 10.6933 3.81152V5.0744L9.94654 5.29499C7.21155 6.10294 5.31826 8.45551 5.31826 11.1423V15.5003C5.31826 16.4841 4.45099 17.2821 3.38415 17.2821C3.02898 17.2821 2.73826 17.5501 2.73826 17.8762V18.8664H21.2283ZM7.89826 20.8469H10.0483C10.0483 21.8313 10.9146 22.6293 11.9833 22.6293C13.0519 22.6293 13.9183 21.8313 13.9183 20.8469H16.0683C16.0683 22.9251 14.2393 24.6098 11.9833 24.6098C9.72717 24.6098 7.89826 22.9251 7.89826 20.8469Z" fill="white"/>
</svg>
