<svg width="34" height="34" viewBox="0 0 34 34" fill="none" xmlns="http://www.w3.org/2000/svg">
<path d="M17 2.83333C9.1885 2.83333 2.83333 9.1885 2.83333 17C2.83333 24.8115 9.1885 31.1667 17 31.1667C24.8115 31.1667 31.1667 24.8115 31.1667 17C31.1667 9.1885 24.8115 2.83333 17 2.83333ZM17 28.3333C10.7511 28.3333 5.66667 23.2489 5.66667 17C5.66667 10.7511 10.7511 5.66667 17 5.66667C23.2489 5.66667 28.3333 10.7511 28.3333 17C28.3333 23.2489 23.2489 28.3333 17 28.3333Z" fill="white"/>
<path d="M12.0417 17C13.2153 17 14.1667 16.0486 14.1667 14.875C14.1667 13.7014 13.2153 12.75 12.0417 12.75C10.8681 12.75 9.91667 13.7014 9.91667 14.875C9.91667 16.0486 10.8681 17 12.0417 17Z" fill="white"/>
<path d="M21.9484 16.9802C23.1165 16.9802 24.0635 16.0332 24.0635 14.8651C24.0635 13.697 23.1165 12.75 21.9484 12.75C20.7803 12.75 19.8333 13.697 19.8333 14.8651C19.8333 16.0332 20.7803 16.9802 21.9484 16.9802Z" fill="white"/>
<path d="M17 19.8333C12.75 19.8333 11.3333 24.0833 11.3333 24.0833H22.6667C22.6667 24.0833 21.25 19.8333 17 19.8333Z" fill="white"/>
</svg>
