<svg width="16" height="16" viewBox="0 0 16 16" fill="none" xmlns="http://www.w3.org/2000/svg">
<g clip-path="url(#clip0_497_347)">
<path d="M14.2093 14.1084L11.5627 11.4119C12.5495 10.2846 13.1626 8.7916 13.1626 7.16152C13.1626 3.64238 10.3515 0.77832 6.89749 0.77832C3.44346 0.77832 0.632385 3.64238 0.632385 7.16152C0.632385 10.6807 3.44346 13.5447 6.89749 13.5447C8.1236 13.5447 9.25999 13.1791 10.217 12.5697L12.9682 15.3728C13.1327 15.5404 13.357 15.6318 13.5813 15.6318C13.8056 15.6318 14.0298 15.5404 14.1943 15.3728C14.5532 15.0225 14.5532 14.4588 14.2093 14.1084ZM2.38183 7.16152C2.38183 4.63262 4.40042 2.56074 6.89749 2.56074C9.39456 2.56074 11.3982 4.63262 11.3982 7.16152C11.3982 9.69043 9.37961 11.7623 6.89749 11.7623C4.41537 11.7623 2.38183 9.70566 2.38183 7.16152Z" fill="#888585"/>
</g>
<defs>
<clipPath id="clip0_497_347">
<rect x="0.0791016" y="0.610718" width="14.9525" height="15.2344" rx="2" fill="white"/>
</clipPath>
</defs>
</svg>
