<svg width="35" height="34" viewBox="0 0 35 34" fill="none" xmlns="http://www.w3.org/2000/svg">
<g clip-path="url(#clip0_122_269)">
<path d="M28.7042 2.12535C27.8588 2.12535 27.0481 2.46118 26.4503 3.05895C25.8525 3.65672 25.5167 4.46748 25.5167 5.31285C25.5167 6.15823 25.8525 6.96898 26.4503 7.56676C27.0481 8.16453 27.8588 8.50035 28.7042 8.50035C29.5496 8.50035 30.3603 8.16453 30.9581 7.56676C31.5559 6.96898 31.8917 6.15823 31.8917 5.31285C31.8917 4.46748 31.5559 3.65672 30.9581 3.05895C30.3603 2.46118 29.5496 2.12535 28.7042 2.12535ZM23.3917 5.31285C23.3916 4.0664 23.8297 2.85957 24.6295 1.90353C25.4292 0.947479 26.5397 0.303088 27.7666 0.083094C28.9935 -0.1369 30.2586 0.0815135 31.3408 0.70012C32.4229 1.31873 33.253 2.29813 33.686 3.46699C34.1189 4.63584 34.1271 5.91971 33.709 7.09397C33.2909 8.26823 32.4733 9.2581 31.3991 9.89041C30.325 10.5227 29.0627 10.7572 27.8331 10.5528C26.6035 10.3484 25.4849 9.71816 24.6731 8.77235L10.3973 15.4024C10.7255 16.4424 10.7255 17.5583 10.3973 18.5984L24.6731 25.2284C25.5312 24.2303 26.7294 23.5864 28.0352 23.4214C29.3411 23.2563 30.6618 23.582 31.7412 24.3352C32.8207 25.0884 33.5821 26.2155 33.8779 27.4981C34.1737 28.7807 33.9828 30.1274 33.3422 31.2773C32.7016 32.4272 31.657 33.2983 30.4108 33.7219C29.1645 34.1454 27.8054 34.0913 26.5968 33.5699C25.3882 33.0484 24.4162 32.0969 23.8692 30.8997C23.3222 29.7025 23.2391 28.3448 23.6361 27.0899L9.36033 20.4599C8.65363 21.2834 7.71165 21.8708 6.66111 22.143C5.61057 22.4152 4.50187 22.3592 3.48415 21.9824C2.46643 21.6056 1.58852 20.9261 0.96851 20.0355C0.348503 19.1448 0.0161438 18.0856 0.0161438 17.0004C0.0161438 15.9151 0.348503 14.8559 0.96851 13.9652C1.58852 13.0746 2.46643 12.3951 3.48415 12.0183C4.50187 11.6415 5.61057 11.5855 6.66111 11.8577C7.71165 12.1299 8.65363 12.7173 9.36033 13.5409L23.6361 6.91085C23.4736 6.39377 23.3912 5.85487 23.3917 5.31285ZM5.32921 13.8129C4.48383 13.8129 3.67308 14.1487 3.0753 14.7464C2.47753 15.3442 2.14171 16.155 2.14171 17.0004C2.14171 17.8457 2.47753 18.6565 3.0753 19.2543C3.67308 19.852 4.48383 20.1879 5.32921 20.1879C6.17459 20.1879 6.98534 19.852 7.58311 19.2543C8.18088 18.6565 8.51671 17.8457 8.51671 17.0004C8.51671 16.155 8.18088 15.3442 7.58311 14.7464C6.98534 14.1487 6.17459 13.8129 5.32921 13.8129ZM28.7042 25.5004C27.8588 25.5004 27.0481 25.8362 26.4503 26.4339C25.8525 27.0317 25.5167 27.8425 25.5167 28.6879C25.5167 29.5332 25.8525 30.344 26.4503 30.9418C27.0481 31.5395 27.8588 31.8754 28.7042 31.8754C29.5496 31.8754 30.3603 31.5395 30.9581 30.9418C31.5559 30.344 31.8917 29.5332 31.8917 28.6879C31.8917 27.8425 31.5559 27.0317 30.9581 26.4339C30.3603 25.8362 29.5496 25.5004 28.7042 25.5004Z" fill="black"/>
</g>
<defs>
<clipPath id="clip0_122_269">
<rect width="34" height="34" fill="white" transform="translate(0.0164185)"/>
</clipPath>
</defs>
</svg>
