<svg width="34" height="34" viewBox="0 0 34 34" fill="none" xmlns="http://www.w3.org/2000/svg">
<path d="M17 25.5C22.6667 25.5 24.0833 19.8333 24.0833 19.8333H9.91666C9.91666 19.8333 11.3333 25.5 17 25.5Z" fill="white"/>
<path d="M17 2.83333C9.1885 2.83333 2.83333 9.1885 2.83333 17C2.83333 24.8115 9.1885 31.1667 17 31.1667C24.8115 31.1667 31.1667 24.8115 31.1667 17C31.1667 9.1885 24.8115 2.83333 17 2.83333ZM17 28.3333C10.7511 28.3333 5.66667 23.2489 5.66667 17C5.66667 10.7511 10.7511 5.66667 17 5.66667C23.2489 5.66667 28.3333 10.7511 28.3333 17C28.3333 23.2489 23.2489 28.3333 17 28.3333Z" fill="white"/>
<path d="M18.4167 17L21.25 17.017C21.267 16.3625 21.5248 15.5833 22.6667 15.5833C23.8085 15.5833 24.0663 16.3625 24.0833 17H26.9167C26.9167 15.2915 25.7848 12.75 22.6667 12.75C19.5486 12.75 18.4167 15.2915 18.4167 17ZM11.3333 15.5833C12.4752 15.5833 12.733 16.3625 12.75 17H15.5833C15.5833 15.2915 14.4514 12.75 11.3333 12.75C8.21525 12.75 7.08333 15.2915 7.08333 17L9.91667 17.017C9.93367 16.3625 10.1915 15.5833 11.3333 15.5833Z" fill="white"/>
</svg>
