<svg width="34" height="34" viewBox="0 0 34 34" fill="none" xmlns="http://www.w3.org/2000/svg">
<path d="M29.4146 17.7205C29.9725 16.9834 30.2812 16.0803 30.2812 15.1406C30.2812 13.6498 29.4479 12.2387 28.1064 11.4517C27.7611 11.2492 27.3679 11.1426 26.9676 11.143H19.0055L19.2047 7.0623C19.2512 6.07616 18.9025 5.13984 18.2252 4.42597C17.8928 4.07411 17.4917 3.79416 17.0469 3.60341C16.602 3.41267 16.1227 3.31518 15.6387 3.31698C13.9121 3.31698 12.3848 4.47909 11.9266 6.14257L9.07441 16.4687H4.78125C4.19355 16.4687 3.71875 16.9435 3.71875 17.5312V29.6172C3.71875 30.2049 4.19355 30.6797 4.78125 30.6797H24.7463C25.0518 30.6797 25.3506 30.6199 25.6262 30.5004C27.2066 29.8264 28.226 28.2824 28.226 26.5691C28.226 26.1508 28.1662 25.7391 28.0467 25.3406C28.6045 24.6035 28.9133 23.7004 28.9133 22.7607C28.9133 22.3424 28.8535 21.9307 28.734 21.5322C29.2918 20.7951 29.6006 19.892 29.6006 18.9523C29.5939 18.534 29.5342 18.1189 29.4146 17.7205ZM6.10938 28.2891V18.8594H8.79883V28.2891H6.10938ZM27.2398 16.5684L26.5127 17.1992L26.9742 18.0426C27.1263 18.3204 27.2051 18.6323 27.2033 18.949C27.2033 19.4969 26.9643 20.0182 26.5525 20.3768L25.8254 21.0076L26.2869 21.851C26.439 22.1288 26.5178 22.4407 26.516 22.7574C26.516 23.3053 26.277 23.8266 25.8652 24.1852L25.1381 24.816L25.5996 25.6594C25.7517 25.9372 25.8305 26.2491 25.8287 26.5658C25.8287 27.3096 25.3904 27.9803 24.7131 28.2857H10.9238V18.7531L14.2275 6.78339C14.3127 6.47659 14.4956 6.20593 14.7484 6.0124C15.0013 5.81888 15.3103 5.71304 15.6287 5.71093C15.8811 5.71093 16.1301 5.78398 16.3293 5.93339C16.658 6.17909 16.834 6.55097 16.8141 6.94609L16.4953 13.5336H26.9344C27.5254 13.8955 27.8906 14.5064 27.8906 15.1406C27.8906 15.6885 27.6516 16.2064 27.2398 16.5684Z" fill="black"/>
</svg>
