<svg width="29" height="27" viewBox="0 0 29 27" fill="none" xmlns="http://www.w3.org/2000/svg">
<path d="M28.0938 13.1484C28.0938 10.6062 27.2965 8.12097 25.8028 6.00714C24.3091 3.89331 22.186 2.24578 19.7021 1.27289C17.2182 0.300003 14.4849 0.0454509 11.848 0.541425C9.21107 1.0374 6.78889 2.26162 4.88777 4.05929C2.98665 5.85695 1.69197 8.14732 1.16746 10.6407C0.642938 13.1342 0.91214 15.7187 1.94102 18.0675C2.9699 20.4162 4.71224 22.4237 6.94772 23.8362C9.1832 25.2486 11.8114 26.0024 14.5 26.0024C14.9622 26.0024 15.4063 26.0024 15.8684 25.9425C16.3802 25.8889 16.8885 25.8088 17.3909 25.7025C19.9806 25.1706 22.3494 23.9345 24.2059 22.1462C26.6974 19.7438 28.0932 16.5133 28.0938 13.1484ZM14.5 2.00831C16.6493 2.00961 18.7573 2.56686 20.5958 3.61973C22.4342 4.6726 23.933 6.18097 24.9299 7.98151C25.9268 9.78205 26.3837 11.8062 26.2514 13.8347C26.119 15.8632 25.4022 17.8188 24.1788 19.4897C23.7794 17.9874 22.9988 16.5998 21.9045 15.447C20.8101 14.2943 19.4351 13.4112 17.8984 12.8742C18.7779 12.2084 19.4169 11.3008 19.7272 10.2768C20.0375 9.25273 20.0037 8.16284 19.6306 7.15771C19.2575 6.15258 18.5635 5.28184 17.6444 4.66584C16.7253 4.04983 15.6266 3.71896 14.5 3.71896C13.3735 3.71896 12.2747 4.04983 11.3556 4.66584C10.4365 5.28184 9.74248 6.15258 9.36938 7.15771C8.99627 8.16284 8.96254 9.25273 9.27284 10.2768C9.58314 11.3008 10.2222 12.2084 11.1016 12.8742C9.56573 13.4125 8.19145 14.296 7.09731 15.4485C6.00316 16.6011 5.22201 17.988 4.82126 19.4897C3.59779 17.8188 2.88106 15.8632 2.74866 13.8347C2.61626 11.8062 3.07325 9.78205 4.07013 7.98151C5.06702 6.18097 6.56582 4.6726 8.40424 3.61973C10.2427 2.56686 12.3507 2.00961 14.5 2.00831ZM10.875 8.86377C10.875 8.18583 11.0876 7.52312 11.4859 6.95943C11.8842 6.39574 12.4504 5.9564 13.1128 5.69696C13.7752 5.43752 14.504 5.36964 15.2072 5.5019C15.9104 5.63416 16.5563 5.96062 17.0633 6.44C17.5702 6.91938 17.9155 7.53014 18.0554 8.19506C18.1952 8.85997 18.1234 9.54918 17.8491 10.1755C17.5747 10.8018 17.1101 11.3372 16.5139 11.7138C15.9178 12.0905 15.217 12.2915 14.5 12.2915C13.5386 12.2915 12.6166 11.9304 11.9367 11.2875C11.2569 10.6447 10.875 9.77287 10.875 8.86377ZM13.34 24.2372L12.9594 24.1857C12.7056 24.1857 12.4519 24.1258 12.2072 24.0743C11.9625 24.0229 11.9081 24.0058 11.7631 23.9715C11.6181 23.9372 11.3191 23.8773 11.1016 23.8173C10.8841 23.7573 10.7844 23.7144 10.6303 23.663C10.4763 23.6116 10.2225 23.5345 10.0322 23.4574C9.84188 23.3802 9.715 23.3202 9.56094 23.2517L8.99907 23.0032L8.54594 22.7461C8.36469 22.6518 8.19251 22.5576 8.02032 22.4462C7.84813 22.3348 7.73032 22.2491 7.58532 22.1548C7.44032 22.0606 7.25001 21.9234 7.09594 21.8035L6.67907 21.4693L6.34376 21.1865C6.34376 19.141 7.20307 17.1793 8.73267 15.733C10.2623 14.2866 12.3368 13.4741 14.5 13.4741C16.6632 13.4741 18.7377 14.2866 20.2673 15.733C21.7969 17.1793 22.6563 19.141 22.6563 21.1865L22.33 21.4693L21.9313 21.7949C21.7681 21.9234 21.5959 22.0434 21.4238 22.1634L21.0069 22.4462C20.8256 22.5576 20.6444 22.6518 20.4631 22.7547C20.3203 22.8429 20.172 22.923 20.0191 22.9946L19.4481 23.2603L18.995 23.4574L18.3788 23.663C18.2247 23.7144 18.0797 23.7744 17.9256 23.8173L17.255 23.9715C17.11 23.9715 16.965 24.0486 16.8109 24.0743C16.6569 24.1001 16.3034 24.1515 16.0497 24.1857L15.6781 24.2372C15.2975 24.2372 14.9078 24.2886 14.5181 24.2886C14.1284 24.2886 13.7206 24.2886 13.34 24.2372Z" fill="white"/>
</svg>
